# AST/ASF file generated using VICON BodyLanguage
# -----------------------------------------------
:version 1.10
:name VICON
:units
  mass 1.0
  length 0.45
  angle deg
:documentation
   .ast/.asf automatically generated from VICON data using
   VICON BodyBuilder and BodyLanguage model FoxedUp or BRILLIANT.MOD
:root
   order TX TY TZ RX RY RZ
   axis XYZ
   position 0 0 0  
   orientation 0 0 0 
:bonedata
  begin
     id 1 
     name lhipjoint
     direction 0.578396 -0.714046 0.394458 
     length 2.21935 
     axis 0 0 0  XYZ
  end
  begin
     id 2 
     name lfemur
     direction 0.34202 -0.939693 0  
     length 6.39105  
     axis 0 0 20  XYZ
    dof rx ry rz
    limits (-160.0 20.0)
           (-70.0 70.0)
           (-60.0 70.0)
  end
  begin
     id 3 
     name ltibia
     direction 0.34202 -0.939693 0   
     length 6.99037   
     axis 0 0 20   XYZ
    dof rx
    limits (-10.0 170.0)
  end
  begin
     id 4 
     name lfoot
     direction 0.0582372 -0.160005 0.985397   
     length 2.06111   
     axis -90 7.62852e-016 20   XYZ
    dof rx rz
    limits (-45.0 90.0)
           (-70.0 20.0)
  end
  begin
     id 5 
     name ltoes
     direction 1.53556e-011 -4.21875e-011 1   
     length 1.04074   
     axis -90 7.62852e-016 20   XYZ
    dof rx
    limits (-90.0 20.0)
  end
  begin
     id 6 
     name rhipjoint
     direction -0.558179 -0.726269 0.40121   
     length 2.182  
     axis 0 0 0  XYZ 
  end
  begin
     id 7 
     name rfemur
     direction -0.34202 -0.939693 0   
     length 6.51172   
     axis 0 0 -20   XYZ
    dof rx ry rz
    limits (-160.0 20.0)
           (-70.0 70.0)
           (-70.0 60.0)
  end
  begin
     id 8 
     name rtibia
     direction -0.34202 -0.939693 0   
     length 7.02607   
     axis 0 0 -20   XYZ
    dof rx
    limits (-10.0 170.0)
 end
 begin
     id 9 
     name rfoot
     direction -0.0788856 -0.216737 0.973038   
     length 1.96734  
     axis -90 -7.62852e-016 -20   XYZ
    dof rx rz
    limits (-45.0 90.0)
           (-20.0 70.0)
  end
  begin
     id 10 
     name rtoes
     direction -1.53567e-011 -4.21783e-011 1   
     length 0.990825   
     axis -90 -7.62852e-016 -20   XYZ
    dof rx
    limits (-90.0 20.0)
  end
  begin
     id 11 
     name lowerback
     direction 0.00668177 0.999323 -0.0361741   
     length 1.7655   
     axis 0 0 0   XYZ
    dof rx ry rz
    limits (-20.0 45.0)
           (-30.0 30.0)
           (-30.0 30.0)
  end
  begin
     id 12 
     name upperback
     direction -0.00222086 0.99851 0.0545167   
     length 1.74912   
     axis 0 0 0   XYZ
    dof rx ry rz
    limits (-20.0 45.0)
           (-30.0 30.0)
           (-30.0 30.0)
  end
  begin
     id 13 
     name thorax
     direction -0.00733971 0.997496 0.0703443   
     length 1.75715   
     axis 0 0 0   XYZ
    dof rx ry rz
    limits (-20.0 45.0)
           (-30.0 30.0)
           (-30.0 30.0)
  end
  begin
     id 14 
     name lowerneck
     direction 0.0279797 0.994795 0.0979765   
     length 1.46939   
     axis 0 0 0   XYZ
    dof rx ry rz
    limits (-20.0 45.0)
           (-30.0 30.0)
           (-30.0 30.0)
  end
  begin
     id 15 
     name upperneck
     direction 0.00339187 0.976776 -0.214238   
     length 1.48018   
     axis 0 0 0   XYZ
    dof rx ry rz
    limits (-20.0 45.0)
           (-30.0 30.0)
           (-30.0 30.0)
  end
  begin
     id 16
     name head
     direction -0.00263506 0.996603 -0.0823096  
     length 1.4976  
     axis 0 0 0   XYZ
    dof rx ry rz
    limits (-20.0 45.0)
           (-30.0 30.0)
           (-30.0 30.0)
  end
  begin
     id 17 
     name lclavicle
     direction 0.894044 0.44508 -0.0508781  
     length 3.03024  
     axis 0 0 0   XYZ
    dof ry rz
    limits (-20.0 10.0)
           (0.0 20.0)
  end
  begin
     id 18 
     name lhumerus
     direction 1 -4.48961e-011 -2.39475e-018   
     length 4.4661   
     axis 180 -30 -90   XYZ
    dof rx ry rz
    limits (-60.0 90.0)
           (-90.0 90.0)
           (-90.0 90.0)
  end
  begin
     id 19
     name lradius
     direction 1 -4.48961e-011 9.29328e-028   
     length 3.41414   
     axis 180 -30 -90   XYZ
    dof rx
    limits (-10.0 170.0)
  end
  begin
     id 20
     name lwrist
     direction 1 -4.48985e-011 1.53461e-026   
     length 1.70707   
     axis -1.09697e-014 90 90   XYZ
    dof ry
    limits (-180.0 0.0)
 end
  begin
     id 21 
     name lhand
     direction 1 -4.48966e-011 3.06923e-026   
     length 0.328298   
     axis -1.95843e-014 90 90   XYZ
    dof rx rz
    limits (-90.0 90.0)
           (-45.0 45.0)
  end
  begin
     id 22 
     name lfingers
     direction 1 -4.48893e-011 6.13845e-026   
     length 0.264682   
     axis -3.91686e-014 90 90   XYZ
    dof rx
    limits (0.0 90.0)
  end
  begin
     id 23
     name lthumb
     direction 0.707107 -6.34876e-011 0.707107   
     length 0.380032   
     axis -90 45 2.85299e-015   XYZ
    dof rx rz
    limits (-45.0 45.0)
           (-45.0 45.0)
  end
  begin
     id 24 
     name rclavicle
     direction -0.936955 0.347862 -0.0332887   
     length 3.26927  
     axis 0 0 0   XYZ 
    dof ry rz
    limits (-10.0 20.0)
           (-20.0 0.0)
  end
  begin
     id 25 
     name rhumerus
     direction -1 -4.4896e-011 1.78637e-018  
     length 4.40431   
     axis 180 30 90   XYZ
    dof rx ry rz
    limits (-90.0 60.0)
           (-90.0 90.0)
           (-90.0 90.0)
  end
  begin
     id 26 
     name rradius
     direction -1 -4.48955e-011 9.34036e-027   
     length 3.04688   
     axis 180 30 90   XYZ
    dof rx
    limits (-10.0 170.0)
  end
  begin
     id 27 
     name rwrist
     direction -1 -4.49011e-011 1.53461e-026   
     length 1.52344   
     axis -1.09697e-014 -90 -90   XYZ
    dof ry
    limits (-180.0 0.0)
  end
  begin
     id 28
     name rhand
     direction -1 -4.48834e-011 3.06923e-026   
     length 0.500489   
     axis -1.95843e-014 -90 -90   XYZ
    dof rx rz
    limits (-90.0 90.0)
           (-45.0 45.0)
  end
  begin
     id 29
     name rfingers
     direction -1 -4.48967e-011 6.13845e-026   
     length 0.403507   
     axis -3.91686e-014 -90 -90   XYZ
    dof rx
    limits (0.0 90.0)
  end
  begin
     id 30
     name rthumb
     direction -0.707107 -6.34826e-011 0.707107   
     length 0.579358   
     axis -90 -45 -2.85299e-015   XYZ
    dof rx rz
    limits (-45.0 45.0)
           (-45.0 45.0)
  end
:hierarchy
  begin
    root lhipjoint rhipjoint lowerback
    lhipjoint lfemur
    lfemur ltibia
    ltibia lfoot
    lfoot ltoes
    rhipjoint rfemur
    rfemur rtibia
    rtibia rfoot
    rfoot rtoes
    lowerback upperback
    upperback thorax
    thorax lowerneck lclavicle rclavicle
    lowerneck upperneck
    upperneck head
    lclavicle lhumerus
    lhumerus lradius
    lradius lwrist
    lwrist lhand lthumb
    lhand lfingers
    rclavicle rhumerus
    rhumerus rradius
    rradius rwrist
    rwrist rhand rthumb
    rhand rfingers
  end

#!OML:ASF H:\IndianDance\Patient Classification 1\Patient 1\Session 1\dancer.ASF
:FULLY-SPECIFIED
:DEGREES
1513
root 3.44444 14.6955 2.3644 -178.797 -14.1364 -178.746
lowerback 7.98104 4.68033 7.2201
upperback -4.66957 6.70046 -4.37841
thorax -8.11406 2.68409 -9.72211
lowerneck -14.0121 -7.34483 -7.1947
upperneck 18.6986 -12.0471 12.5425
head 9.43373 -5.2182 3.88907
rclavicle 1.54058e-015 2.3059e-014
rhumerus 26.6739 32.8653 -51.631
rradius 59.0406
rwrist -61.8871
rhand -37.2526 -35.8703
rfingers 7.12502
rthumb -10.3183 -65.5972
lclavicle 1.54058e-015 2.3059e-014
lhumerus 23.4122 -65.3023 28.1144
lradius 109.921
lwrist 40.9945
lhand -47.6708 35.9939
lfingers 7.12502
lthumb -20.3521 64.9474
rfemur 147.155 178.559 -171.582
rtibia 19.7837
rfoot 142.581 -221.135
rtoes 31.5319
lfemur -29.2043 11.3641 -19.1389
ltibia 63.9406
lfoot -19.7473 -4.7896
ltoes -1.60275
1514
root 3.43764 14.6773 2.35981 -178.84 -14.0719 -177.874
lowerback 8.11773 4.6296 8.06005
upperback -4.73453 6.78796 -4.06982
thorax -8.19884 2.68597 -9.89226
lowerneck -14.1447 -7.39011 -7.35861
upperneck 18.7116 -12.0313 12.4632
head 9.46546 -5.21682 3.88764
rclavicle -4.97459e-014 -1.35174e-014
rhumerus 25.9003 33.7634 -50.5504
rradius 61.1213
rwrist -59.4367
rhand -38.0445 -35.092
rfingers 7.12502
rthumb -11.0822 -64.7795
lclavicle -4.97459e-014 -1.35174e-014
lhumerus 22.2786 -65.1395 29.6969
lradius 109.813
lwrist 41.0226
lhand -47.5549 36.3058
lfingers 7.12502
lthumb -20.2407 65.2712
rfemur 146.544 181.988 -169.3
rtibia 20.3022
rfoot 145.666 -219.775
rtoes 29.337
lfemur -30.1841 11.5819 -19.0779
ltibia 63.842
lfoot -20.6447 -5.88944
ltoes -1.97703
1515
root 3.42991 14.6546 2.35678 -178.828 -13.9014 -177.217
lowerback 8.25545 4.60447 8.6272
upperback -4.7848 6.87089 -3.79009
thorax -8.29325 2.69714 -9.93625
lowerneck -14.2701 -7.4223 -7.49164
upperneck 18.6856 -11.9937 12.3712
head 9.4771 -5.20536 3.87995
rclavicle 6.54499e-014 1.59028e-015
rhumerus 25.0689 34.6853 -49.4987
rradius 63.2718
rwrist -57.0003
rhand -38.9912 -34.1729
rfingers 7.12502
rthumb -11.9952 -63.8092
lclavicle 6.54499e-014 1.59028e-015
lhumerus 21.1138 -64.9829 31.2576
lradius 109.721
lwrist 41.0786
lhand -47.4663 36.615
lfingers 7.12502
lthumb -20.1555 65.5895
rfemur 145.701 185.035 -167.3
rtibia 21.0741
rfoot 148.14 -218.486
rtoes 27.1675
lfemur -30.9265 11.7425 -19.3213
ltibia 63.1935
lfoot -21.6081 -6.41963
ltoes -2.08502
1516
root 3.42221 14.6302 2.35492 -178.753 -13.6415 -176.828
lowerback 8.39216 4.59618 8.86542
upperback -4.82127 6.92707 -3.56545
thorax -8.40438 2.70968 -9.8496
lowerneck -14.3912 -7.43617 -7.58477
upperneck 18.6311 -11.9374 12.2838
head 9.47382 -5.18332 3.87006
rclavicle 9.8796e-014 3.02153e-014
rhumerus 24.1937 35.6334 -48.5195
rradius 65.4447
rwrist -54.5823
rhand -40.0418 -33.058
rfingers 7.12502
rthumb -13.0081 -62.6324
lclavicle 9.8796e-014 3.02153e-014
lhumerus 19.9709 -64.8318 32.7013
lradius 109.651
lwrist 41.1695
lhand -47.4079 36.9043
lfingers 7.12502
lthumb -20.0994 65.8847
rfemur 144.633 187.849 -165.567
rtibia 22.1136
rfoot 150.321 -217.215
rtoes 24.7505
lfemur -31.3841 11.7592 -19.8573
ltibia 62.1029
lfoot -22.529 -6.25432
ltoes -1.35927
1517
root 3.41481 14.6049 2.35407 -178.615 -13.2996 -176.716
lowerback 8.51856 4.60137 8.77122
upperback -4.84238 6.94946 -3.40488
thorax -8.526 2.72198 -9.63926
lowerneck -14.522 -7.42979 -7.62484
upperneck 18.5611 -11.8634 12.1962
head 9.46178 -5.14998 3.85362
rclavicle -9.89451e-014 -1.82882e-014
rhumerus 23.2945 36.6121 -47.6187
rradius 67.5981
rwrist -52.1663
rhand -41.1753 -31.6833
rfingers 7.12502
rthumb -14.1005 -61.1849
lclavicle -9.89451e-014 -1.82882e-014
lhumerus 18.915 -64.6848 33.9497
lradius 109.603
lwrist 41.2873
lhand -47.3961 37.1822
lfingers 7.12502
lthumb -20.088 66.1637
rfemur 143.345 190.525 -164.068
rtibia 23.4134
rfoot 152.306 -215.848
rtoes 22.0138
lfemur -31.5581 11.5822 -20.6217
ltibia 60.7518
lfoot -23.3743 -5.29161
ltoes 0.345773
1518
root 3.40721 14.5796 2.35436 -178.424 -12.877 -176.836
lowerback 8.62394 4.62051 8.40817
upperback -4.84738 6.94549 -3.30881
thorax -8.64281 2.73612 -9.34169
lowerneck -14.6593 -7.40638 -7.61847
upperneck 18.474 -11.7785 12.1214
head 9.44199 -5.10817 3.83531
rclavicle -2.68359e-014 -3.97569e-015
rhumerus 22.3864 37.6147 -46.8017
rradius 69.6852
rwrist -49.722
rhand -42.354 -29.9805
rfingers 7.12502
rthumb -15.2362 -59.3994
lclavicle -2.68359e-014 -3.97569e-015
lhumerus 18.0155 -64.553 34.929
lradius 109.575
lwrist 41.3952
lhand -47.4373 37.4513
lfingers 7.12502
lthumb -20.1276 66.4286
rfemur 141.849 193.134 -162.72
rtibia 24.9361
rfoot 154.108 -214.301
rtoes 18.9528
lfemur -31.5075 11.1955 -21.5101
ltibia 59.3611
lfoot -24.1054 -3.69594
ltoes 3.14251
1519
root 3.39874 14.5538 2.35603 -178.195 -12.3733 -177.128
lowerback 8.7048 4.65248 7.85149
upperback -4.84024 6.92424 -3.26357
thorax -8.74922 2.75313 -8.98542
lowerneck -14.803 -7.36831 -7.57347
upperneck 18.3727 -11.6842 12.0576
head 9.41599 -5.05905 3.81561
rclavicle -2.66868e-014 -1.35174e-014
rhumerus 21.4826 38.6451 -46.0645
rradius 71.6588
rwrist -47.1871
rhand -43.5338 -27.876
rfingers 7.12502
rthumb -16.3724 -57.205
lclavicle -2.66868e-014 -1.35174e-014
lhumerus 17.2868 -64.4339 35.6419
lradius 109.555
lwrist 41.4783
lhand -47.517 37.6757
lfingers 7.12502
lthumb -20.2042 66.645
rfemur 140.152 195.663 -161.46
rtibia 26.6701
rfoot 155.531 -212.536
rtoes 16.0198
lfemur -31.3433 10.6621 -22.4306
ltibia 58.1487
lfoot -24.7265 -1.80317
ltoes 6.7848
